<svg>
  <symbol id="cart-icon" viewBox="0 0 453.4 376.8">
    <path fill="none" stroke="#195070" stroke-linecap="round" stroke-miterlimit="10" stroke-width="38.62" d="M24.2 39.9h102.3l61.4 204.6H376l53.2-204.6"/>
    <circle cx="220" cy="50.6" r="17.7" fill="#195070"/>
    <circle cx="280.3" cy="50.6" r="17.7" fill="#195070"/>
    <circle cx="338.1" cy="50.6" r="17.7" fill="#195070"/>
    <circle cx="220" cy="108.3" r="17.7" fill="#195070"/>
    <circle cx="280.3" cy="108.3" r="17.7" fill="#195070"/>
    <circle cx="338.1" cy="108.3" r="17.7" fill="#195070"/>
    <circle cx="221.2" cy="166" r="17.7" fill="#195070"/>
    <circle cx="348.2" cy="312.2" r="33" fill="#195070" stroke="#195070" stroke-miterlimit="10" stroke-width="14.48"/>
    <circle cx="220.3" cy="312.2" r="33" fill="#195070" stroke="#195070" stroke-miterlimit="10" stroke-width="14.48"/>
    <circle cx="281.6" cy="166" r="17.7" fill="#195070"/>
    <circle cx="339.4" cy="166" r="17.7" fill="#195070"/>
  </symbol>
  <symbol id="creativity-icon" viewBox="0 0 456.4 447.9">
    <path fill="#b7312b" d="M33.9 98.1c60-84.7 177.3-104.7 262-44.7s104.7 177.4 44.7 262z"/>
    <path fill="#fff" stroke="#b7312b" stroke-miterlimit="10" stroke-width="11" d="M427.7 202.8c9.8 110.8-72.1 208.6-182.9 218.3s-208.5-72-218.3-182.8z"/>
  </symbol>
  <symbol id="passion-icon" viewBox="0 0 444.1 447.9">
    <circle cx="213.5" cy="213.5" r="208" fill="none" stroke="#b7312b" stroke-miterlimit="10" stroke-width="11"/>
    <path fill="#b7312b" d="M129.6 125.5l186.6 56.7-142.4 133.3-44.2-190z"/>
    <path fill="#b7312b" d="M244.4 248.9L431 305.6 288.6 438.9l-44.2-190zM14.1 2.1l186.7 56.8L58.3 192.2 14.1 2.1z"/>
  </symbol>
  <symbol id="manifestation-icon" viewBox="0 0 453.4 376.8">
    <path fill="none" stroke="#b7312b" stroke-miterlimit="10" stroke-width="7.93" d="M245 26.8L59.3 348.5h371.5L245 26.8z"/>
    <path fill="#b7312b" d="M141 64.3L21.6 271h238.7L141 64.3z"/>
  </symbol>
</svg>
