<svg xmlns="http://www.w3.org/2000/svg"><symbol id="search-icon" viewBox="0 0 278.6 283.5"><circle cx="102.1" cy="102.1" r="88.1" fill="none" stroke="#195070" stroke-miterlimit="10" stroke-width="28"/><path fill="none" stroke="#195070" stroke-linecap="round" stroke-miterlimit="10" stroke-width="28" d="M161.9 166.8l102.7 102.7"/></symbol><symbol id="arrow-pointing-left" viewBox="0 0 27.2 49.2"><path fill="none" stroke="#707071" stroke-linecap="round" stroke-miterlimit="10" stroke-width="7" d="M23.5 3.5L4.7 26.7l19 19"/></symbol><symbol id="arrow-pointing-right" viewBox="0 0 27.3 49.2"><path fill="none" stroke="#707071" stroke-linecap="round" stroke-miterlimit="10" stroke-width="7" d="M3.7 3.5l18.9 23.2-19 19"/></symbol><symbol id="clarity-icon" viewBox="0 0 453.4 376.8"><circle cx="229.8" cy="184.7" r="162.5" fill="none" stroke="#707070" stroke-miterlimit="10" stroke-width="28.11"/></symbol><symbol id="cart-icon" viewBox="0 0 453.4 376.8"><path fill="none" stroke="#195070" stroke-linecap="round" stroke-miterlimit="10" stroke-width="38.62" d="M24.2 39.9h102.3l61.4 204.6H376l53.2-204.6"/><circle cx="220" cy="50.6" r="17.7" fill="#195070"/><circle cx="280.3" cy="50.6" r="17.7" fill="#195070"/><circle cx="338.1" cy="50.6" r="17.7" fill="#195070"/><circle cx="220" cy="108.3" r="17.7" fill="#195070"/><circle cx="280.3" cy="108.3" r="17.7" fill="#195070"/><circle cx="338.1" cy="108.3" r="17.7" fill="#195070"/><circle cx="221.2" cy="166" r="17.7" fill="#195070"/><circle cx="348.2" cy="312.2" r="33" fill="#195070" stroke="#195070" stroke-miterlimit="10" stroke-width="14.48"/><circle cx="220.3" cy="312.2" r="33" fill="#195070" stroke="#195070" stroke-miterlimit="10" stroke-width="14.48"/><circle cx="281.6" cy="166" r="17.7" fill="#195070"/><circle cx="339.4" cy="166" r="17.7" fill="#195070"/></symbol><symbol id="balance-icon" viewBox="0 0 453.4 376.8"><path fill="none" stroke="#707070" stroke-miterlimit="10" stroke-width="13.58" d="M38.3 31.1h376.9v207.22H38.3z"/><path fill="#707070" stroke="#707070" stroke-miterlimit="10" stroke-width="10.65" d="M226.7 244.3l-63.1 109.3h126.2l-63.1-109.3z"/></symbol><symbol id="cleansing-icon" viewBox="0 0 453.4 376.8"><path fill="#707070" d="M226.7 245.9l-66.6-115.2 133-.1-66.4 115.3z"/><path fill="#707070" d="M226.9 130.9L160.3 15.8l133-.2-66.4 115.3zm-.1 230.2L160.2 246l133-.2-66.4 115.3z"/><path fill="none" stroke="#707070" stroke-linecap="round" stroke-miterlimit="10" stroke-width="10" d="M365.3 15.8v348.7M85.9 15.8v348.7"/></symbol><symbol id="communication-icon" viewBox="0 0 453.4 376.8"><path fill="none" stroke="#707070" stroke-linecap="round" stroke-miterlimit="10" stroke-width="11.88" d="M223 267.5a122.5 122.5 0 1 1 0-182.4"/><path fill="#707070" stroke="#707070" stroke-miterlimit="10" stroke-width="11.88" d="M223 85.1a122.5 122.5 0 0 1 0 182.4m0 0a122.5 122.5 0 0 1 0-182.4"/><path fill="none" stroke="#707070" stroke-linecap="round" stroke-miterlimit="10" stroke-width="11.88" d="M223 85.1a122.5 122.5 0 1 1 0 182.4"/></symbol><symbol id="calm-icon" viewBox="0 0 453.4 376.8"><path fill="#707070" d="M38.8 267.4c.3-103.8 84.8-187.7 188.6-187.3S415 164.9 414.7 268.8z"/></symbol><symbol id="courage-icon" viewBox="0 0 453.4 376.8"><path fill="none" stroke="#707070" stroke-linecap="round" stroke-miterlimit="10" stroke-width="10" d="M290.4 14.3v96.5H29.58V14.3zm133.4 124v96.5H162.98v-96.5zM293.5 262.4v96.5H32.68v-96.5z"/></symbol><symbol id="confidence-icon" viewBox="0 0 453.4 376.8"><path fill="#707070" stroke="#707070" stroke-miterlimit="10" stroke-width="28.11" d="M226.7 44.1L60.1 332.7h333.2L226.7 44.1z"/></symbol><symbol id="dreamwork-icon" viewBox="0 0 453.4 376.8"><circle cx="207.6" cy="195.7" r="138.3" fill="#707070"/><circle cx="303.9" cy="123.1" r="80.3" fill="#fff" stroke="#707070" stroke-miterlimit="10" stroke-width="12"/></symbol><symbol id="grounding-icon" viewBox="0 0 453.4 376.8"><path fill="#707070" stroke="#707070" stroke-miterlimit="10" stroke-width="13.58" d="M38.3 81.1h376.9v207.22H38.3z"/><path fill="#fff" d="M128.4 157.7H325v54.04H128.4z"/></symbol><symbol id="creativity-icon" viewBox="0 0 456.4 447.9"><path fill="#707070" d="M33.9 98.1c60-84.7 177.3-104.7 262-44.7s104.7 177.4 44.7 262z"/><path fill="#fff" stroke="#707070" stroke-miterlimit="10" stroke-width="11" d="M427.7 202.8c9.8 110.8-72.1 208.6-182.9 218.3s-208.5-72-218.3-182.8z"/></symbol><symbol id="insight-icon" viewBox="0 0 453.4 376.8"><path fill="none" stroke="#707070" stroke-miterlimit="10" stroke-width="17" d="M380.1 188.4a153.4 153.4 0 1 1-306.7 0"/><path fill="#707070" stroke="#707070" stroke-miterlimit="10" stroke-width="17" d="M73.4 188.4a153.4 153.4 0 1 1 306.7 0"/></symbol><symbol id="focus-icon" viewBox="0 0 453.4 376.8"><path fill="#707070" stroke="#707070" stroke-miterlimit="10" stroke-width="13.67" d="M315.5 191.5L226.7 37.7l-89.3 154.7"/><path fill="none" stroke="#707070" stroke-miterlimit="10" stroke-width="13.67" d="M137.4 192.4L52.7 339.1h348l-85.2-147.6"/></symbol><symbol id="intuition-icon" viewBox="0 0 453.4 376.8"><path fill="none" stroke="#707070" stroke-miterlimit="10" stroke-width="17" d="M386.7 183.6a153.4 153.4 0 1 1-306.7 0m0 0a153.4 153.4 0 0 1 306.7 0"/><path fill="#707070" d="M233.4 240.8l63.1-109.3H170.3l63.1 109.3z"/></symbol><symbol id="love-icon" viewBox="0 0 453.4 376.8"><circle cx="294.6" cy="240.2" r="101.1" fill="none" stroke="#707070" stroke-miterlimit="10" stroke-width="13.67"/><circle cx="158.8" cy="240.2" r="101.1" fill="none" stroke="#707070" stroke-miterlimit="10" stroke-width="13.67"/><circle cx="226.7" cy="132.9" r="101.1" fill="none" stroke="#707070" stroke-miterlimit="10" stroke-width="13.67"/></symbol><symbol id="motivation-icon" viewBox="0 0 453.4 376.8"><path fill="#707070" stroke="#707070" stroke-miterlimit="10" stroke-width="13.58" d="M36.3 84.8h376.9v207.22H36.3z"/><path fill="none" stroke="#fff" stroke-miterlimit="10" stroke-width="11.57" d="M311.7 217.3l-87-62.3-86.9 62.3"/></symbol><symbol id="manifestation-icon" viewBox="0 0 453.4 376.8"><path fill="none" stroke="#707070" stroke-miterlimit="10" stroke-width="7.93" d="M245 26.8L59.3 348.5h371.5L245 26.8z"/><path fill="#707070" d="M141 64.3L21.6 271h238.7L141 64.3z"/></symbol><symbol id="passion-icon" viewBox="0 0 444.1 447.9"><circle cx="213.5" cy="213.5" r="208" fill="none" stroke="#707070" stroke-miterlimit="10" stroke-width="11"/><path fill="#707070" d="M129.6 125.5l186.6 56.7-142.4 133.3-44.2-190z"/><path fill="#707070" d="M244.4 248.9L431 305.6 288.6 438.9l-44.2-190zM14.1 2.1l186.7 56.8L58.3 192.2 14.1 2.1z"/></symbol><symbol id="protection-icon" viewBox="0 0 453.4 376.8"><path fill="none" stroke="#707070" stroke-miterlimit="10" stroke-width="13.67" d="M86 45h281.4v281.39H86z"/><path fill="#707070" stroke="#707070" stroke-miterlimit="10" stroke-width="7.95" d="M226.7 131.3l-47.1 81.6h94.2l-47.1-81.6z"/></symbol><symbol id="strength-icon" viewBox="0 0 453.4 376.8"><path fill="none" stroke="#707070" stroke-linecap="round" stroke-miterlimit="10" stroke-width="11.88" d="M22 35.3h114.6v309.9H22zm149.1-1.5h114.6v309.9H171.1zm145.8-2.2h114.6v309.9H316.9z"/></symbol><symbol id="transformation-icon" viewBox="0 0 453.4 376.8"><path fill="none" stroke="#707070" stroke-miterlimit="10" stroke-width="13.67" d="M321.7 180.2L232.9 26.4l-89.3 154.7"/><path fill="#707070" stroke="#707070" stroke-miterlimit="10" stroke-width="13.67" d="M143.6 181.1L58.9 327.8h348l-85.2-147.6"/></symbol><symbol id="vitality-icon" viewBox="0 0 453.4 376.8"><path fill="#707070" d="M279.5 362.8l-57.8-84.3-57.7 84.3 2.8-102.2-96.2 34.3 62.3-81-98-28.9 98-28.8-62.3-81 96.3 34.3L164 7.3l57.8 84.3 57.7-84.2-2.8 102.1L373 75.3l-62.4 80.9 98 28.9-98 28.9 62.3 80.9-96.2-34.2 2.8 102.1z"/><circle cx="226.7" cy="188.4" r="50.6" fill="#fff"/></symbol><symbol id="error" viewBox="0 0 256 256"><path d="M252.3 206.6L137.9 8.5a11.4 11.4 0 0 0-19.8-.1L3.7 206.7a11.6 11.6 0 0 0 9.9 17.3h228.8a11.6 11.6 0 0 0 9.9-17.4zM143 80l-1 25.9-4.2 45.1h-19.6l-4.2-45.1-1-25.9zm-15 118.7c-11.2 0-19.2-8.2-19.2-19.4s8-19 19.2-19 19.2 7.9 19.2 19-8 19.4-19.2 19.4z"/></symbol></svg>