<svg height="32" viewBox="0 0 32 32" width="32" xmlns="http://www.w3.org/2000/svg"><path d="m5.6 4.1h21.1l5.2 6.2h-31.4z" fill="#4ec5d6"/><path d="m5.6 4.1 5.4 6.2h-11z" fill="#00b7d9"/><path d="m16.3 4.1-5.3 6.2h10.6z" fill="#a6dbd9"/><path d="m0 10.3h32l-15.7 18z" fill="#195070"/><path d="m11 10.3 5.3 17.9 5.3-17.9z" fill="#226487"/><path d="m21.6 10.3-.7 2.6-2.7-2.6z" fill="#339fbb"/><path d="m18.2 10.3-3.7-4.1 1.8-2.1 5.3 6.2z" fill="#195070"/><path d="m14.5 6.2 3.7 4.1h-1.8l-2.8-3z" fill="#a3dbe0"/><path d="m20.9 12.9-2.7-2.6h-1.8l4 4.2z" fill="#298db3"/><path d="m25.8 17.5-4.9-4.6-.5 1.6 4.2 4.3z" fill="#276b92"/><path d="m13.6 7.3 2.8 3h-1.9l-1.8-2z" fill="#8fd4d8"/><path d="m20.4 14.5-4-4.2h-1.9l5.5 5.7z" fill="#1d7aa7"/><path d="m24.6 18.8-4.2-4.3-.4 1.5 3.7 3.8z" fill="#245b7d"/><path d="m21.6 10.3-.7 2.6 4.6 4.8 6.5-7.4z" fill="#387799"/></svg>