<svg height="64" viewBox="0 0 64 64" width="64" xmlns="http://www.w3.org/2000/svg"><path d="m11.1 8h42.3l10.3 12.4h-62.8z" fill="#4ec5d6"/><path d="m11.1 8 10.9 12.4h-22z" fill="#00b7d9"/><path d="m32.6 8-10.6 12.4h21.2z" fill="#a6dbd9"/><path d="m0 20.4h63.9l-31.3 35.9z" fill="#195070"/><path d="m22 20.4 10.6 35.8 10.6-35.8z" fill="#226487"/><path d="m43.2 20.4-1.6 5.2-5.2-5.2z" fill="#339fbb"/><path d="m36.4 20.4-7.4-8.3 3.6-4.1 10.6 12.4z" fill="#195070"/><path d="m29 12.1 7.4 8.3h-3.6l-5.7-6z" fill="#a3dbe0"/><path d="m41.6 25.6-5.2-5.2h-3.6l7.9 8.3z" fill="#298db3"/><path d="m51.5 34.7-9.9-9.1-.9 3.1 8.5 8.5z" fill="#276b92"/><path d="m27.1 14.4 5.7 6h-3.8l-3.6-4z" fill="#8fd4d8"/><path d="m40.7 28.7-7.9-8.3h-3.8l10.8 11.4z" fill="#1d7aa7"/><path d="m49.2 37.2-8.5-8.5-.9 3.1 7.6 7.5z" fill="#245b7d"/><path d="m43.2 20.4-1.6 5.2 9.4 9.6 12.9-14.8z" fill="#387799"/></svg>