<svg height="16" viewBox="0 0 16 16" width="16" xmlns="http://www.w3.org/2000/svg"><path d="m2.8 2h10.6l2.6 3.1h-15.8z" fill="#4ec5d6"/><path d="m2.8 2 2.7 3.1h-5.5z" fill="#00b7d9"/><path d="m8.2 2-2.7 3.1h5.3z" fill="#a6dbd9"/><path d="m0 5.1h16l-7.8 9z" fill="#195070"/><path d="m5.5 5.1 2.7 8.9 2.6-8.9z" fill="#226487"/><path d="m10.8 5.1-.4 1.3-1.3-1.3z" fill="#339fbb"/><path d="m9.1 5.1-1.8-2.1.9-1 2.6 3.1z" fill="#195070"/><path d="m7.3 3 1.8 2.1h-.9l-1.4-1.5z" fill="#a3dbe0"/><path d="m10.4 6.4-1.3-1.3h-.9l2 2.1z" fill="#298db3"/><path d="m12.9 8.7-2.5-2.3-.2.8 2.1 2.1z" fill="#276b92"/><path d="m6.8 3.6 1.4 1.5h-.9l-.9-1z" fill="#8fd4d8"/><path d="m10.2 7.2-2-2.1h-.9l2.7 2.8z" fill="#1d7aa7"/><path d="m12.3 9.3-2.1-2.1-.2.7 1.9 1.9z" fill="#245b7d"/><path d="m10.8 5.1-.4 1.3 2.4 2.4 3.2-3.7z" fill="#387799"/></svg>