<svg xmlns="http://www.w3.org/2000/svg" width="211.6" height="159.9" viewBox="0 0 211.6 159.9"><path fill="#4ec5d6" d="M36.7 0h140L211 40.9H3z"/><path fill="#00b7d9" d="M36.7 0l36 40.9H0z"/><path fill="#a6dbd9" d="M107.9 0L72.7 40.9h70.4z"/><path fill="#195070" d="M0 40.9h211.6l-103.7 119z"/><path fill="#226487" d="M72.7 40.9l35.2 118.4 35.2-118.4z"/><path fill="#339fbb" d="M143.1 40.9l-5.3 17.3-17.3-17.3z"/><path fill="#195070" d="M120.5 40.9L96 13.6 107.9 0l35.2 40.9z"/><path fill="#a3dbe0" d="M96 13.6l24.5 27.3h-12L89.8 21z"/><path fill="#298db3" d="M137.8 58.2l-17.3-17.3h-12l26.3 27.7z"/><path fill="#276b92" d="M170.3 88.3l-32.5-30.1-3 10.4 28.1 28z"/><path fill="#8fd4d8" d="M89.8 21l18.7 19.9H96L84 27.8z"/><path fill="#1d7aa7" d="M134.8 68.6l-26.3-27.7H96l35.9 37.7z"/><path fill="#245b7d" d="M162.9 96.6l-28.1-28-2.9 10 25 25z"/><path fill="#387799" d="M143.1 40.9l-5.3 17.3 31 31.8 42.8-49.1z"/></svg>