<svg xmlns="http://www.w3.org/2000/svg" width="64" height="64" viewBox="0 0 64 64"><path fill="#4ec5d6" d="M11.1 8h42.3l10.3 12.4H.9L11.1 8z"/><path fill="#00b7d9" d="M11.1 8L22 20.4H0L11.1 8z"/><path fill="#a6dbd9" d="M32.6 8L22 20.4h21.2L32.6 8z"/><path fill="#195070" d="M0 20.4h63.9L32.6 56.3 0 20.4z"/><path fill="#226487" d="M22 20.4l10.6 35.8 10.6-35.8H22z"/><path fill="#339fbb" d="M43.2 20.4l-1.6 5.2-5.2-5.2h6.8z"/><path fill="#195070" d="M36.4 20.4L29 12.1 32.6 8l10.6 12.4h-6.8z"/><path fill="#a3dbe0" d="M29 12.1l7.4 8.3h-3.6l-5.7-6 1.9-2.3z"/><path fill="#298db3" d="M41.6 25.6l-5.2-5.2h-3.6l7.9 8.3.9-3.1z"/><path fill="#276b92" d="M51.5 34.7l-9.9-9.1-.9 3.1 8.5 8.5 2.3-2.5z"/><path fill="#8fd4d8" d="M27.1 14.4l5.7 6H29l-3.6-4 1.7-2z"/><path fill="#1d7aa7" d="M40.7 28.7l-7.9-8.3H29l10.8 11.4.9-3.1z"/><path fill="#245b7d" d="M49.2 37.2l-8.5-8.5-.9 3.1 7.6 7.5 1.8-2.1z"/><path fill="#387799" d="M43.2 20.4l-1.6 5.2 9.4 9.6 12.9-14.8H43.2z"/></svg>