<svg xmlns="http://www.w3.org/2000/svg" width="16" height="16" viewBox="0 0 16 16"><path fill="#4ec5d6" d="M2.8 2h10.6L16 5.1H.2L2.8 2z"/><path fill="#00b7d9" d="M2.8 2l2.7 3.1H0L2.8 2z"/><path fill="#a6dbd9" d="M8.2 2L5.5 5.1h5.3L8.2 2z"/><path fill="#195070" d="M0 5.1h16l-7.8 9-8.2-9z"/><path fill="#226487" d="M5.5 5.1L8.2 14l2.6-8.9H5.5z"/><path fill="#339fbb" d="M10.8 5.1l-.4 1.3-1.3-1.3h1.7z"/><path fill="#195070" d="M9.1 5.1L7.3 3l.9-1 2.6 3.1H9.1z"/><path fill="#a3dbe0" d="M7.3 3l1.8 2.1h-.9L6.8 3.6l.5-.6z"/><path fill="#298db3" d="M10.4 6.4L9.1 5.1h-.9l2 2.1.2-.8z"/><path fill="#276b92" d="M12.9 8.7l-2.5-2.3-.2.8 2.1 2.1.6-.6z"/><path fill="#8fd4d8" d="M6.8 3.6l1.4 1.5h-.9l-.9-1 .4-.5z"/><path fill="#1d7aa7" d="M10.2 7.2l-2-2.1h-.9L10 7.9l.2-.7z"/><path fill="#245b7d" d="M12.3 9.3l-2.1-2.1-.2.7 1.9 1.9.4-.5z"/><path fill="#387799" d="M10.8 5.1l-.4 1.3 2.4 2.4L16 5.1h-5.2z"/></svg>