<svg xmlns="http://www.w3.org/2000/svg" width="32" height="32" viewBox="0 0 32 32"><path fill="#4ec5d6" d="M5.6 4.1h21.1l5.2 6.2H.5l5.1-6.2z"/><path fill="#00b7d9" d="M5.6 4.1l5.4 6.2H0l5.6-6.2z"/><path fill="#a6dbd9" d="M16.3 4.1L11 10.3h10.6l-5.3-6.2z"/><path fill="#195070" d="M0 10.3h32l-15.7 18L0 10.3z"/><path fill="#226487" d="M11 10.3l5.3 17.9 5.3-17.9H11z"/><path fill="#339fbb" d="M21.6 10.3l-.7 2.6-2.7-2.6h3.4z"/><path fill="#195070" d="M18.2 10.3l-3.7-4.1 1.8-2.1 5.3 6.2h-3.4z"/><path fill="#a3dbe0" d="M14.5 6.2l3.7 4.1h-1.8l-2.8-3 .9-1.1z"/><path fill="#298db3" d="M20.9 12.9l-2.7-2.6h-1.8l4 4.2.5-1.6z"/><path fill="#276b92" d="M25.8 17.5l-4.9-4.6-.5 1.6 4.2 4.3 1.2-1.3z"/><path fill="#8fd4d8" d="M13.6 7.3l2.8 3h-1.9l-1.8-2 .9-1z"/><path fill="#1d7aa7" d="M20.4 14.5l-4-4.2h-1.9L20 16l.4-1.5z"/><path fill="#245b7d" d="M24.6 18.8l-4.2-4.3L20 16l3.7 3.8.9-1z"/><path fill="#387799" d="M21.6 10.3l-.7 2.6 4.6 4.8 6.5-7.4H21.6z"/></svg>